<svg xmlns="http://www.w3.org/2000/svg" xmlns:xlink="http://www.w3.org/1999/xlink" width="200" zoomAndPan="magnify" viewBox="0 0 150 149.999998" height="200" preserveAspectRatio="xMidYMid meet" version="1.0"><defs><g/></defs><g fill="#000000" fill-opacity="1"><g transform="translate(27.278528, 82.504513)"><g><path d="M 0.929688 -5.550781 C 2.507812 -1.070312 5.203125 0.464844 8.480469 0.464844 C 11.3125 0.464844 13.683594 -1.046875 13.683594 -4.15625 C 13.683594 -7.015625 11.613281 -8.457031 7.664062 -11.359375 C 4.785156 -13.472656 3.4375 -14.308594 3.4375 -16.121094 C 3.4375 -17.65625 4.621094 -18.675781 6.621094 -18.675781 C 9.59375 -18.675781 10.800781 -16.332031 11.242188 -14.054688 L 13.101562 -14.75 C 11.5 -17.632812 9.476562 -19.046875 6.738281 -19.046875 C 4.042969 -19.046875 2.089844 -17.722656 2.089844 -15.308594 C 2.089844 -13.007812 3.484375 -11.941406 6.804688 -9.476562 C 10.289062 -6.828125 12.359375 -5.460938 12.359375 -3.414062 C 12.359375 -1.070312 10.753906 0.09375 8.617188 0.09375 C 5.550781 0.09375 3.253906 -2.601562 2.789062 -6.457031 Z M 0.929688 -5.550781 "/></g></g></g><g fill="#000000" fill-opacity="1"><g transform="translate(43.748522, 82.504513)"><g><path d="M 1.996094 -17.515625 C 2.347656 -15.285156 2.648438 -11.847656 2.789062 -4.644531 L 3.136719 -4.644531 C 3.296875 -11.847656 3.578125 -15.285156 3.925781 -17.515625 L 2.949219 -18.585938 Z M 2.949219 0.464844 L 4.296875 -0.859375 L 2.949219 -2.207031 L 1.625 -0.859375 Z M 2.949219 0.464844 "/></g></g></g><g fill="#000000" fill-opacity="1"><g transform="translate(51.530675, 82.504513)"><g><path d="M 1.625 0 L 2.371094 0 C 2.207031 -1.953125 2.183594 -2.878906 2.183594 -4.578125 L 2.183594 -17.398438 L 10.222656 0.464844 L 10.640625 0.464844 L 18.28125 -17.46875 L 18.28125 -4.578125 C 18.28125 -2.878906 18.257812 -1.953125 18.121094 0 L 20.769531 0 C 20.605469 -1.953125 20.582031 -2.878906 20.582031 -4.578125 L 20.582031 -14.007812 C 20.582031 -15.703125 20.605469 -16.632812 20.769531 -18.585938 L 18.375 -18.585938 L 11.453125 -2.625 L 4.179688 -18.585938 L 1.625 -18.585938 C 1.765625 -16.632812 1.8125 -15.703125 1.8125 -14.007812 L 1.8125 -4.578125 C 1.8125 -2.878906 1.765625 -1.953125 1.625 0 Z M 1.625 0 "/></g></g></g><g fill="#000000" fill-opacity="1"><g transform="translate(75.78256, 82.504513)"><g><path d="M 1.625 0 L 4.273438 0 C 4.136719 -1.953125 4.089844 -2.878906 4.089844 -4.578125 L 4.089844 -8.59375 L 5.921875 -8.59375 C 10.058594 -8.59375 13.660156 -9.546875 13.660156 -13.589844 C 13.660156 -17.632812 10.058594 -18.585938 5.921875 -18.585938 L 1.625 -18.585938 C 1.765625 -16.632812 1.8125 -15.703125 1.8125 -14.007812 L 1.8125 -4.578125 C 1.8125 -2.878906 1.765625 -1.953125 1.625 0 Z M 4.089844 -8.96875 L 4.089844 -18.210938 L 5.902344 -18.210938 C 8.617188 -18.210938 11.289062 -17.28125 11.289062 -13.589844 C 11.289062 -9.894531 8.617188 -8.96875 5.902344 -8.96875 Z M 4.089844 -8.96875 "/></g></g></g><g fill="#000000" fill-opacity="1"><g transform="translate(92.461623, 82.504513)"><g><path d="M 1.671875 -18.585938 C 1.8125 -16.632812 1.859375 -15.703125 1.859375 -14.007812 L 1.859375 -4.578125 C 1.859375 -2.878906 1.8125 -1.953125 1.625 0 L 11.894531 0 L 12.566406 -1.253906 C 9.964844 -0.488281 8.386719 -0.371094 6.085938 -0.371094 L 4.136719 -0.371094 L 4.136719 -14.007812 C 4.136719 -15.703125 4.179688 -16.632812 4.320312 -18.585938 Z M 1.671875 -18.585938 "/></g></g></g><g fill="#000000" fill-opacity="1"><g transform="translate(107.816599, 82.504513)"><g><path d="M 1.625 -18.585938 C 1.8125 -16.632812 1.835938 -15.703125 1.835938 -14.007812 L 1.835938 -4.578125 C 1.835938 -2.878906 1.8125 -1.953125 1.625 0 L 12.542969 0 L 13.21875 -1.253906 C 10.617188 -0.488281 9.035156 -0.371094 6.738281 -0.371094 L 4.136719 -0.371094 L 4.136719 -9.664062 L 5.621094 -9.664062 C 6.851562 -9.664062 8.105469 -9.664062 10.269531 -9.429688 L 10.269531 -10.269531 C 8.105469 -10.035156 6.851562 -10.035156 5.621094 -10.035156 L 4.136719 -10.035156 L 4.136719 -18.210938 L 6.25 -18.210938 C 7.292969 -18.210938 9.570312 -18.074219 11.546875 -17.28125 L 12.589844 -18.585938 Z M 1.625 -18.585938 "/></g></g></g><path stroke-linecap="round" transform="matrix(0.748052, 0, 0, 0.75, 42.532868, 90.094442)" fill="none" stroke-linejoin="miter" d="M 0.499139 0.499078 L 59.658012 0.499078 " stroke="#000000" stroke-width="1" stroke-opacity="1" stroke-miterlimit="4"/><g fill="#000000" fill-opacity="1"><g transform="translate(90.401955, 91.972567)"><g><path d="M 2.441406 -3.175781 C 1.902344 -3.117188 1.46875 -3.054688 0.976562 -3.007812 C 1.023438 -3.210938 1.070312 -3.40625 1.117188 -3.597656 C 1.132812 -3.597656 1.132812 -3.609375 1.144531 -3.621094 C 2.371094 -5.570312 3.40625 -7.941406 3.007812 -8.554688 C 2.925781 -8.664062 2.804688 -8.710938 2.683594 -8.6875 C 1.996094 -8.578125 1.277344 -6.015625 1.058594 -5.234375 C 0.878906 -4.546875 0.6875 -3.789062 0.492188 -2.972656 C 0.167969 -2.9375 -0.191406 -2.910156 -0.625 -2.875 C -0.746094 -2.863281 -0.84375 -2.753906 -0.832031 -2.625 C -0.832031 -2.503906 -0.722656 -2.417969 -0.601562 -2.417969 C -0.601562 -2.417969 -0.589844 -2.417969 -0.589844 -2.417969 C -0.214844 -2.441406 0.0976562 -2.464844 0.371094 -2.492188 C -0.0585938 -0.671875 -0.515625 1.359375 -0.914062 3.261719 C -1.203125 4.632812 -1.433594 5.800781 -1.5625 6.652344 C -1.804688 8.074219 -1.78125 8.242188 -1.550781 8.316406 C -1.527344 8.316406 -1.492188 8.328125 -1.46875 8.328125 C -1.261719 8.328125 -1.15625 8.027344 -1.046875 7.726562 C -1 7.605469 -1.070312 7.472656 -1.191406 7.425781 C -1.203125 7.425781 -1.214844 7.410156 -1.226562 7.410156 C -1 5.824219 -0.0976562 1.445312 0.867188 -2.539062 C 1.433594 -2.585938 1.902344 -2.648438 2.503906 -2.71875 C 2.625 -2.742188 2.71875 -2.851562 2.695312 -2.984375 C 2.683594 -3.105469 2.5625 -3.199219 2.441406 -3.175781 Z M 2.609375 -8.050781 C 2.5625 -7.617188 2.296875 -6.652344 1.539062 -5.222656 C 1.996094 -6.90625 2.394531 -7.726562 2.609375 -8.050781 Z M 2.609375 -8.050781 "/></g></g></g><g fill="#000000" fill-opacity="1"><g transform="translate(93.13294, 91.972567)"><g><path d="M 5.03125 -2.671875 C 4.921875 -2.71875 4.777344 -2.671875 4.730469 -2.5625 C 3.8125 -0.699219 3.128906 -0.109375 2.804688 -0.167969 C 2.671875 -0.191406 2.238281 -0.445312 2.128906 -2.550781 C 2.128906 -2.648438 2.058594 -2.730469 1.972656 -2.753906 C 1.878906 -2.78125 1.769531 -2.753906 1.71875 -2.671875 C 1.648438 -2.585938 1.578125 -2.492188 1.503906 -2.382812 C 1.203125 -1.972656 0.804688 -1.417969 0.324219 -0.902344 C 0.253906 -0.816406 0.191406 -0.769531 0.15625 -0.746094 C 0.0703125 -1.167969 0.515625 -2.78125 1.226562 -3.285156 C 1.433594 -3.429688 1.707031 -3.539062 2.082031 -3.105469 C 2.164062 -3.007812 2.308594 -2.996094 2.40625 -3.082031 C 2.503906 -3.152344 2.515625 -3.308594 2.441406 -3.40625 C 1.984375 -3.933594 1.550781 -3.921875 1.261719 -3.828125 C 0.335938 -3.5 -0.289062 -1.71875 -0.3125 -0.902344 C -0.324219 -0.566406 -0.230469 -0.347656 -0.0351562 -0.277344 C 0.265625 -0.15625 0.566406 -0.480469 0.660156 -0.589844 C 1.070312 -1.035156 1.445312 -1.515625 1.707031 -1.890625 C 1.839844 -0.515625 2.164062 0.167969 2.707031 0.289062 C 2.753906 0.289062 2.804688 0.300781 2.851562 0.300781 C 3.667969 0.300781 4.546875 -1.132812 5.136719 -2.359375 C 5.199219 -2.480469 5.148438 -2.609375 5.03125 -2.671875 Z M 5.03125 -2.671875 "/></g></g></g><g fill="#000000" fill-opacity="1"><g transform="translate(97.608387, 91.972567)"><g><path d="M 5.355469 -2.753906 C 5.257812 -2.839844 5.113281 -2.828125 5.03125 -2.730469 C 4.078125 -1.636719 2.585938 0.109375 2.347656 0.421875 C 2.273438 0.503906 2.203125 0.601562 2.128906 0.699219 C 2.035156 0.457031 1.914062 0.230469 1.757812 -0.0117188 C 1.179688 -0.902344 0.660156 -1.746094 0.6875 -2.335938 C 0.710938 -2.804688 0.949219 -3.210938 1.347656 -3.453125 C 1.671875 -3.644531 2.035156 -3.683594 2.308594 -3.550781 C 2.417969 -3.5 2.5625 -3.550781 2.609375 -3.667969 C 2.671875 -3.777344 2.625 -3.921875 2.503906 -3.972656 C 2.09375 -4.164062 1.5625 -4.113281 1.105469 -3.851562 C 0.578125 -3.527344 0.265625 -2.984375 0.230469 -2.359375 C 0.191406 -1.625 0.722656 -0.746094 1.371094 0.242188 C 1.578125 0.554688 1.707031 0.855469 1.792969 1.144531 C 0.855469 2.417969 -0.15625 4.054688 0.359375 4.558594 C 0.445312 4.644531 0.554688 4.679688 0.660156 4.679688 C 0.855469 4.679688 1.070312 4.585938 1.300781 4.402344 C 1.949219 3.863281 2.625 2.636719 2.296875 1.238281 C 2.429688 1.070312 2.5625 0.890625 2.707031 0.710938 C 2.949219 0.410156 4.441406 -1.335938 5.378906 -2.429688 C 5.460938 -2.527344 5.449219 -2.671875 5.355469 -2.753906 Z M 1.445312 3.539062 C 1.117188 4.019531 0.792969 4.210938 0.6875 4.222656 C 0.636719 4.054688 0.792969 3.355469 1.914062 1.769531 C 1.960938 2.636719 1.601562 3.296875 1.445312 3.539062 Z M 1.445312 3.539062 "/></g></g></g><g fill="#000000" fill-opacity="1"><g transform="translate(102.456788, 91.972567)"><g><path d="M 5.691406 -2.742188 C 5.582031 -2.816406 5.4375 -2.78125 5.378906 -2.671875 C 3.667969 0.0859375 3.066406 0.0234375 3.007812 0.0117188 C 2.886719 -0.0234375 2.753906 -0.265625 2.71875 -0.855469 C 2.707031 -1.117188 2.648438 -1.914062 2.117188 -1.984375 C 1.503906 -2.070312 0.769531 -1 0.109375 0.386719 C 0.515625 -1.445312 1.105469 -3.957031 1.539062 -5.738281 C 3.152344 -8.640625 3.972656 -10.816406 3.632812 -11.285156 C 3.5625 -11.394531 3.441406 -11.429688 3.320312 -11.40625 C 2.804688 -11.3125 1.996094 -9.554688 1.457031 -7.328125 C 1.433594 -7.242188 -0.722656 1.550781 -0.792969 2.636719 C -0.792969 2.753906 -0.722656 2.851562 -0.601562 2.875 C -0.589844 2.875 -0.578125 2.875 -0.566406 2.875 C -0.46875 2.875 -0.371094 2.816406 -0.335938 2.730469 C 0.710938 -0.277344 1.734375 -1.527344 2.035156 -1.527344 C 2.046875 -1.527344 2.046875 -1.527344 2.046875 -1.527344 C 2.09375 -1.527344 2.226562 -1.382812 2.261719 -0.832031 C 2.273438 -0.542969 2.335938 0.3125 2.886719 0.457031 C 3.128906 0.515625 3.839844 0.699219 5.761719 -2.429688 C 5.835938 -2.539062 5.800781 -2.683594 5.691406 -2.742188 Z M 3.238281 -10.746094 C 3.140625 -10.265625 2.804688 -9.230469 1.996094 -7.605469 C 2.453125 -9.335938 2.949219 -10.335938 3.238281 -10.746094 Z M 3.238281 -10.746094 "/></g></g></g><g fill="#000000" fill-opacity="1"><g transform="translate(107.642048, 91.972567)"><g><path d="M 3.511719 -2.730469 C 3.40625 -2.804688 3.273438 -2.765625 3.199219 -2.660156 C 2.394531 -1.359375 1.046875 -0.132812 0.636719 -0.300781 C 0.589844 -0.324219 0.203125 -0.554688 0.734375 -2.585938 C 0.757812 -2.71875 0.6875 -2.839844 0.566406 -2.875 C 0.433594 -2.898438 0.3125 -2.828125 0.277344 -2.707031 C -0.15625 -1.011719 -0.0976562 -0.109375 0.445312 0.121094 C 0.53125 0.15625 0.613281 0.167969 0.699219 0.167969 C 1.601562 0.167969 2.984375 -1.445312 3.597656 -2.417969 C 3.65625 -2.527344 3.621094 -2.671875 3.511719 -2.730469 Z M 0.671875 -3.707031 C 1.289062 -3.667969 1.277344 -4.441406 0.78125 -4.273438 C 0.53125 -4.199219 0.203125 -3.730469 0.671875 -3.707031 Z M 0.671875 -3.707031 "/></g></g></g><g fill="#000000" fill-opacity="1"><g transform="translate(110.685831, 91.972567)"><g><path d="M 4.355469 -2.609375 C 4.246094 -2.695312 4.101562 -2.671875 4.03125 -2.574219 C 3.527344 -1.925781 2.695312 -1.382812 2.058594 -1.503906 C 2.070312 -1.589844 2.082031 -1.671875 2.082031 -1.757812 C 2.164062 -3.117188 1.746094 -3.394531 1.492188 -3.441406 C 1.203125 -3.5 0.902344 -3.285156 0.757812 -2.925781 C 0.699219 -2.949219 0.625 -2.949219 0.566406 -2.898438 C 0.0859375 -2.597656 -0.3125 -1.828125 -0.0976562 -1 C 0.046875 -0.503906 0.386719 -0.191406 0.832031 -0.191406 C 1.25 -0.191406 1.695312 -0.503906 1.925781 -1.058594 C 2.765625 -0.878906 3.777344 -1.503906 4.390625 -2.285156 C 4.476562 -2.394531 4.453125 -2.539062 4.355469 -2.609375 Z M 0.84375 -0.648438 C 0.832031 -0.648438 0.832031 -0.648438 0.832031 -0.648438 C 0.53125 -0.660156 0.398438 -0.949219 0.359375 -1.117188 C 0.242188 -1.527344 0.335938 -2.09375 0.671875 -2.40625 C 0.699219 -1.996094 0.925781 -1.550781 1.503906 -1.238281 C 1.335938 -0.855469 1.046875 -0.648438 0.84375 -0.648438 Z M 1.625 -1.78125 C 1.613281 -1.757812 1.613281 -1.734375 1.613281 -1.707031 C 1.15625 -2.007812 1.082031 -2.394531 1.167969 -2.695312 C 1.226562 -2.886719 1.347656 -2.984375 1.40625 -2.984375 C 1.46875 -2.972656 1.671875 -2.742188 1.625 -1.78125 Z M 1.625 -1.78125 "/></g></g></g><g fill="#000000" fill-opacity="1"><g transform="translate(114.535677, 91.972567)"><g><path d="M 4.835938 -2.683594 C 4.730469 -2.742188 4.585938 -2.707031 4.523438 -2.585938 C 4.234375 -2.09375 3.476562 -0.757812 3.042969 -0.804688 C 2.960938 -0.816406 2.71875 -0.9375 2.480469 -1.78125 C 2.308594 -2.371094 2.082031 -2.925781 1.636719 -2.949219 C 1.3125 -2.972656 0.949219 -2.71875 0.398438 -1.683594 C 0.542969 -2.203125 0.699219 -2.71875 0.816406 -3.140625 C 0.867188 -3.296875 0.902344 -3.429688 0.9375 -3.5625 C 0.976562 -3.683594 0.902344 -3.8125 0.78125 -3.851562 C 0.660156 -3.886719 0.53125 -3.8125 0.492188 -3.683594 C 0.457031 -3.5625 0.421875 -3.417969 0.371094 -3.273438 C 0.0585938 -2.203125 -0.410156 -0.578125 -0.53125 0.410156 C -0.542969 0.515625 -0.46875 0.625 -0.359375 0.648438 C -0.335938 0.660156 -0.324219 0.660156 -0.300781 0.660156 C -0.203125 0.660156 -0.121094 0.601562 -0.0859375 0.515625 C 1.046875 -2.296875 1.503906 -2.492188 1.613281 -2.492188 C 1.636719 -2.492188 1.804688 -2.441406 2.035156 -1.648438 C 2.273438 -0.816406 2.585938 -0.398438 2.996094 -0.347656 C 3.609375 -0.277344 4.164062 -1.035156 4.921875 -2.359375 C 4.992188 -2.480469 4.945312 -2.609375 4.835938 -2.683594 Z M 4.835938 -2.683594 "/></g></g></g></svg>